<svg width="800" height="800" viewBox="0 0 32 32" data-name="Layer 1" xmlns="http://www.w3.org/2000/svg"><path d="M23.75 16a7.745 7.745 0 0 1-15.032 2.626l-4.433 3.546A13.244 13.244 0 0 0 29.25 16" fill="#00ac47"/><path d="M23.75 16a7.74 7.74 0 0 1-3.252 6.299l4.383 3.506A13.2 13.2 0 0 0 29.25 16" fill="#4285f4"/><path d="M8.25 16a7.7 7.7 0 0 1 .468-2.626L4.285 9.828a13.18 13.18 0 0 0 0 12.344l4.433-3.546A7.7 7.7 0 0 1 8.25 16" fill="#ffba00"/><path d="M16 8.25a7.7 7.7 0 0 1 4.558 1.496l4.06-3.79A13.215 13.215 0 0 0 4.285 9.828l4.433 3.546A7.76 7.76 0 0 1 16 8.25" fill="#ea4435"/><path d="M29.25 15v1L27 19.5H16.5V14h11.75a1 1 0 0 1 1 1" fill="#4285f4"/></svg>